<svg width="400" height="28" viewBox="0 0 400 28" fill="none" xmlns="http://www.w3.org/2000/svg">
<path d="M10.636 23.22C11.536 23.22 12.292 23.112 12.904 22.896C13.516 22.68 14.002 22.392 14.362 22.032C14.734 21.672 14.998 21.252 15.154 20.772C15.322 20.292 15.406 19.782 15.406 19.242C15.406 18.678 15.316 18.174 15.136 17.73C14.956 17.274 14.674 16.89 14.29 16.578C13.906 16.254 13.408 16.008 12.796 15.84C12.196 15.672 11.47 15.588 10.618 15.588H5.74V23.22H10.636ZM5.74 4.716V12.24H9.592C11.248 12.24 12.496 11.94 13.336 11.34C14.188 10.74 14.614 9.786 14.614 8.478C14.614 7.122 14.23 6.156 13.462 5.58C12.694 5.004 11.494 4.716 9.862 4.716H5.74ZM9.862 0.971998C11.566 0.971998 13.024 1.134 14.236 1.458C15.448 1.782 16.438 2.244 17.206 2.844C17.986 3.444 18.556 4.17 18.916 5.022C19.276 5.874 19.456 6.834 19.456 7.902C19.456 8.514 19.366 9.102 19.186 9.666C19.006 10.218 18.724 10.74 18.34 11.232C17.968 11.712 17.488 12.15 16.9 12.546C16.324 12.942 15.634 13.278 14.83 13.554C18.406 14.358 20.194 16.29 20.194 19.35C20.194 20.454 19.984 21.474 19.564 22.41C19.144 23.346 18.532 24.156 17.728 24.84C16.924 25.512 15.934 26.04 14.758 26.424C13.582 26.808 12.238 27 10.726 27H0.898V0.971998H9.862ZM37.9234 17.172L34.7554 8.514C34.5994 8.13 34.4374 7.674 34.2694 7.146C34.1014 6.618 33.9334 6.048 33.7654 5.436C33.6094 6.048 33.4474 6.624 33.2794 7.164C33.1114 7.692 32.9494 8.154 32.7934 8.55L29.6434 17.172H37.9234ZM46.4734 27H42.7294C42.3094 27 41.9674 26.898 41.7034 26.694C41.4394 26.478 41.2414 26.214 41.1094 25.902L39.1654 20.592H28.3834L26.4394 25.902C26.3434 26.178 26.1574 26.43 25.8814 26.658C25.6054 26.886 25.2634 27 24.8554 27H21.0754L31.3174 0.971998H36.2494L46.4734 27ZM57.6385 16.92V27H52.8145V16.92L43.3285 0.971998H47.5945C48.0145 0.971998 48.3445 1.074 48.5845 1.278C48.8365 1.482 49.0465 1.74 49.2145 2.052L53.9665 10.746C54.2425 11.262 54.4825 11.748 54.6865 12.204C54.9025 12.66 55.0945 13.116 55.2625 13.572C55.4185 13.116 55.5985 12.66 55.8025 12.204C56.0065 11.748 56.2405 11.262 56.5045 10.746L61.2385 2.052C61.3705 1.788 61.5685 1.542 61.8325 1.314C62.0965 1.086 62.4325 0.971998 62.8405 0.971998H67.1245L57.6385 16.92ZM82.715 5.706C82.571 5.958 82.415 6.144 82.247 6.264C82.091 6.372 81.893 6.426 81.653 6.426C81.401 6.426 81.125 6.336 80.825 6.156C80.537 5.964 80.189 5.754 79.781 5.526C79.373 5.298 78.893 5.094 78.341 4.914C77.801 4.722 77.159 4.626 76.415 4.626C75.743 4.626 75.155 4.71 74.651 4.878C74.147 5.034 73.721 5.256 73.373 5.544C73.037 5.832 72.785 6.18 72.617 6.588C72.449 6.984 72.365 7.422 72.365 7.902C72.365 8.514 72.533 9.024 72.869 9.432C73.217 9.84 73.673 10.188 74.237 10.476C74.801 10.764 75.443 11.022 76.163 11.25C76.883 11.478 77.621 11.724 78.377 11.988C79.133 12.24 79.871 12.54 80.591 12.888C81.311 13.224 81.953 13.656 82.517 14.184C83.081 14.7 83.531 15.336 83.867 16.092C84.215 16.848 84.389 17.766 84.389 18.846C84.389 20.022 84.185 21.126 83.777 22.158C83.381 23.178 82.793 24.072 82.013 24.84C81.245 25.596 80.303 26.196 79.187 26.64C78.071 27.072 76.793 27.288 75.353 27.288C74.525 27.288 73.709 27.204 72.905 27.036C72.101 26.88 71.327 26.652 70.583 26.352C69.851 26.052 69.161 25.692 68.513 25.272C67.865 24.852 67.289 24.384 66.785 23.868L68.207 21.546C68.327 21.378 68.483 21.24 68.675 21.132C68.867 21.012 69.071 20.952 69.287 20.952C69.587 20.952 69.911 21.078 70.259 21.33C70.607 21.57 71.021 21.84 71.501 22.14C71.981 22.44 72.539 22.716 73.175 22.968C73.823 23.208 74.597 23.328 75.497 23.328C76.877 23.328 77.945 23.004 78.701 22.356C79.457 21.696 79.835 20.754 79.835 19.53C79.835 18.846 79.661 18.288 79.313 17.856C78.977 17.424 78.527 17.064 77.963 16.776C77.399 16.476 76.757 16.224 76.037 16.02C75.317 15.816 74.585 15.594 73.841 15.354C73.097 15.114 72.365 14.826 71.645 14.49C70.925 14.154 70.283 13.716 69.719 13.176C69.155 12.636 68.699 11.964 68.351 11.16C68.015 10.344 67.847 9.342 67.847 8.154C67.847 7.206 68.033 6.282 68.405 5.382C68.789 4.482 69.341 3.684 70.061 2.988C70.781 2.292 71.669 1.734 72.725 1.314C73.781 0.894 74.993 0.684 76.361 0.684C77.897 0.684 79.313 0.924 80.609 1.404C81.905 1.884 83.009 2.556 83.921 3.42L82.715 5.706ZM93.4728 27H88.6128V0.971998H93.4728V27ZM122.412 13.986C122.412 15.894 122.094 17.646 121.458 19.242C120.822 20.838 119.928 22.212 118.776 23.364C117.624 24.516 116.238 25.41 114.618 26.046C112.998 26.682 111.198 27 109.218 27H99.3003V0.971998H109.218C111.198 0.971998 112.998 1.296 114.618 1.944C116.238 2.58 117.624 3.474 118.776 4.626C119.928 5.766 120.822 7.134 121.458 8.73C122.094 10.326 122.412 12.078 122.412 13.986ZM117.444 13.986C117.444 12.558 117.252 11.28 116.868 10.152C116.496 9.012 115.95 8.052 115.23 7.272C114.522 6.48 113.658 5.874 112.638 5.454C111.63 5.034 110.49 4.824 109.218 4.824H104.16V23.148H109.218C110.49 23.148 111.63 22.938 112.638 22.518C113.658 22.098 114.522 21.498 115.23 20.718C115.95 19.926 116.496 18.966 116.868 17.838C117.252 16.698 117.444 15.414 117.444 13.986ZM131.547 4.824V12.042H140.655V15.768H131.547V23.13H143.103V27H126.687V0.971998H143.103V4.824H131.547ZM161.008 4.824V12.528H170.764V16.398H161.008V27H156.148V0.971998H172.564V4.824H161.008ZM181.399 27H176.539V0.971998H181.399V27ZM209.168 0.971998V27H206.684C206.3 27 205.976 26.94 205.712 26.82C205.46 26.688 205.214 26.472 204.974 26.172L191.384 8.82C191.456 9.612 191.492 10.344 191.492 11.016V27H187.226V0.971998H189.764C189.968 0.971998 190.142 0.983998 190.286 1.008C190.442 1.02 190.574 1.056 190.682 1.116C190.802 1.164 190.916 1.242 191.024 1.35C191.132 1.446 191.252 1.578 191.384 1.746L205.028 19.17C204.992 18.75 204.962 18.336 204.938 17.928C204.914 17.52 204.902 17.142 204.902 16.794V0.971998H209.168ZM219.824 4.824V12.042H228.932V15.768H219.824V23.13H231.38V27H214.964V0.971998H231.38V4.824H219.824ZM253.324 17.748C253.324 19.212 253.144 20.532 252.784 21.708C252.424 22.884 251.884 23.886 251.164 24.714C250.456 25.542 249.568 26.178 248.5 26.622C247.432 27.066 246.19 27.288 244.774 27.288C244.126 27.288 243.49 27.246 242.866 27.162C242.242 27.09 241.588 26.97 240.904 26.802C240.94 26.322 240.982 25.842 241.03 25.362C241.078 24.882 241.12 24.402 241.156 23.922C241.192 23.658 241.294 23.448 241.462 23.292C241.642 23.124 241.894 23.04 242.218 23.04C242.422 23.04 242.686 23.082 243.01 23.166C243.346 23.25 243.766 23.292 244.27 23.292C244.954 23.292 245.56 23.196 246.088 23.004C246.616 22.8 247.054 22.482 247.402 22.05C247.762 21.618 248.032 21.06 248.212 20.376C248.392 19.68 248.482 18.84 248.482 17.856V0.971998H253.324V17.748ZM263.735 4.824V12.042H272.843V15.768H263.735V23.13H275.291V27H258.875V0.971998H275.291V4.824H263.735ZM314.214 0.971998L306.132 27H301.758L296.07 9.216C295.914 8.784 295.77 8.256 295.638 7.632C295.566 7.932 295.494 8.214 295.422 8.478C295.35 8.742 295.272 8.988 295.188 9.216L289.446 27H285.054L276.99 0.971998H281.04C281.46 0.971998 281.808 1.074 282.084 1.278C282.372 1.47 282.564 1.734 282.66 2.07L287.088 17.64C287.184 18.024 287.274 18.444 287.358 18.9C287.454 19.344 287.55 19.812 287.646 20.304C287.742 19.8 287.844 19.326 287.952 18.882C288.072 18.438 288.198 18.024 288.33 17.64L293.442 2.07C293.538 1.794 293.724 1.542 294 1.314C294.288 1.086 294.636 0.971998 295.044 0.971998H296.466C296.886 0.971998 297.228 1.074 297.492 1.278C297.756 1.482 297.954 1.746 298.086 2.07L303.18 17.64C303.432 18.384 303.66 19.242 303.864 20.214C304.02 19.266 304.194 18.408 304.386 17.64L308.814 2.07C308.886 1.77 309.066 1.512 309.354 1.296C309.654 1.08 310.008 0.971998 310.416 0.971998H314.214ZM322.27 4.824V12.042H331.378V15.768H322.27V23.13H333.826V27H317.41V0.971998H333.826V4.824H322.27ZM353.363 23.004V27H338.117V0.971998H342.959V23.004H353.363ZM364.686 13.356C365.598 13.356 366.39 13.242 367.062 13.014C367.746 12.786 368.304 12.474 368.736 12.078C369.18 11.67 369.51 11.19 369.726 10.638C369.942 10.086 370.05 9.48 370.05 8.82C370.05 7.5 369.612 6.486 368.736 5.778C367.872 5.07 366.546 4.716 364.758 4.716H361.662V13.356H364.686ZM377.142 27H372.768C371.94 27 371.34 26.676 370.968 26.028L365.496 17.694C365.292 17.382 365.064 17.16 364.812 17.028C364.572 16.896 364.212 16.83 363.732 16.83H361.662V27H356.82V0.971998H364.758C366.522 0.971998 368.034 1.158 369.294 1.53C370.566 1.89 371.604 2.4 372.408 3.06C373.224 3.72 373.824 4.512 374.208 5.436C374.592 6.348 374.784 7.356 374.784 8.46C374.784 9.336 374.652 10.164 374.388 10.944C374.136 11.724 373.764 12.432 373.272 13.068C372.792 13.704 372.192 14.262 371.472 14.742C370.764 15.222 369.954 15.6 369.042 15.876C369.354 16.056 369.642 16.272 369.906 16.524C370.17 16.764 370.41 17.052 370.626 17.388L377.142 27ZM389.935 16.92V27H385.111V16.92L375.625 0.971998H379.891C380.311 0.971998 380.641 1.074 380.881 1.278C381.133 1.482 381.343 1.74 381.511 2.052L386.263 10.746C386.539 11.262 386.779 11.748 386.983 12.204C387.199 12.66 387.391 13.116 387.559 13.572C387.715 13.116 387.895 12.66 388.099 12.204C388.303 11.748 388.537 11.262 388.801 10.746L393.535 2.052C393.667 1.788 393.865 1.542 394.129 1.314C394.393 1.086 394.729 0.971998 395.137 0.971998H399.421L389.935 16.92Z" fill="#0D5EBA"/>
</svg>
